<?xml version="1.0" encoding="UTF-8" standalone="no"?>
<svg xmlns:rdf="http://www.w3.org/1999/02/22-rdf-syntax-ns#" xmlns="http://www.w3.org/2000/svg" height="243" width="243" version="1.1" xmlns:cc="http://creativecommons.org/ns#" xmlns:dc="http://purl.org/dc/elements/1.1/">
<defs>
<linearGradient id="a" gradientUnits="userSpaceOnUse" gradientTransform="matrix(0,12.7,-12.7,0,640,65)">
<stop stop-color="#f7931e" offset="0"/>
<stop stop-color="#ed1c24" offset="1"/>
</linearGradient>
<linearGradient id="b" gradientUnits="userSpaceOnUse" gradientTransform="matrix(10.76,-145.87,145.87,10.76,631.57,223.43)" x1=".4">
<stop stop-color="#2b98d8" offset="0"/>
<stop stop-color="#a10b0b" offset="1"/>
</linearGradient>
</defs>
<g transform="translate(-474)">
<path fill="#E5E5FF" d="m493.85 119.62c0 57.41 46.54 103.94 103.94 103.94s103.94-46.53 103.94-103.94c0-57.4-46.54-103.94-103.94-103.94s-103.94 46.54-103.94 103.94"/>
<g fill="#2b98d8" fill-rule="evenodd">
<path d="m624.26 203.62c-0.11-0.12 0.05-0.15-0.01-0.26 0.25-0.16 0.42-0.04 0.55 0.18-0.19 0.18-0.36 0.21-0.54 0.08"/>
<path d="m623.2 203.84c-0.2-0.07-0.49-0.55-0.39-0.77 0.08 0.01 0.17-0.01 0.28-0.08 0.26 0.15 0.57 0.7 0.11 0.85"/>
<path d="m625.62 202.09c-0.23 0.11-0.41 0.03-0.42-0.18 0.12-0.07 0.25-0.13 0.34-0.1 0.08 0.11 0.09 0.2 0.08 0.28"/>
<path d="m606.87 210.72c-0.25 0.22-0.4 0.2-0.59-0.03-0.21 0.13-0.27 0.32-0.49 0.45-0.18-0.48 0.06-0.81 0.48-1.09 0.07 0.18 0.21 0.25 0.41 0.31 0.2-0.64 0.71-0.48 1.29-0.65 0.01 0.33 0.32 0.76 0.29 1.08-0.41 0.39-1.11 0.64-1.4-0.07"/>
<path d="m625.12 201.37c-0.28 0.16-0.63 0.01-0.76-0.2-0.33-0.6 0.68-1.3 1.06-0.86 0.29 0.34-0.06 0.92-0.3 1.06"/>
<path d="m600.37 213.37c-0.1-0.16-0.07-0.28 0.08-0.36 0.06 0.02 0.11 0.09 0.15 0.18-0.04 0.07-0.1 0.14-0.23 0.18"/>
<path d="m601.12 212.8c-0.08 0.01-0.13-0.05-0.21-0.03 0.05-0.21 0.12-0.42 0.36-0.57 0.15 0.26-0.06 0.41-0.15 0.6"/>
<path d="m607.2 209.58c0.13-0.46 0.29-0.91 0.79-1.25 0.26 0.51-0.42 0.7-0.41 1.12-0.14 0.07-0.28 0.17-0.38 0.13"/>
<path d="m679.12 172.23c-0.25-0.28-0.86-0.18-0.88-0.72 0.34 0.12 0.65 0.27 0.88 0.72"/>
<path d="m608.76 207.94c-0.1 0.08-0.15 0.04-0.23 0.05-0.03-0.21 0.02-0.24-0.16-0.43 0.17-0.03 0.1-0.14 0.23-0.18 0.18 0.23-0.04 0.33 0.16 0.56"/>
<path d="m602.94 210.77c-0.17-0.12-0.16-0.27-0.23-0.47 0.17-0.19 0.51-0.47 0.77-0.39l0.18 0.36c-0.06 0.24-0.41 0.58-0.72 0.5"/>
<path d="m611.2 206.38c-0.08 0.03-0.18 0.12-0.23 0.05-0.15-0.15 0.25-0.3 0.23-0.05"/>
<path d="m610.2 206.82c-0.46-0.21-0.87 0.02-1.34 0.04-0.16 0.1-0.15 0.27-0.18 0.41-0.26-0.16 0.23-0.44-0.13-0.78 0.2-0.71 1.22-0.9 1.6-0.29 0.1 0.23-0.02 0.4 0.05 0.62"/>
<path d="m606.74 208.31c-0.07-0.18-0.03-0.33 0.18-0.41 0.08 0.21 0.07 0.42-0.18 0.41"/>
<path d="m679.4 171.11c-0.46 0.03-0.61-0.17-1.04-0.12-0.07-0.19-0.2-0.41 0-0.52 0.19 0.7 0.74 0.27 1.04 0.64"/>
<path d="m611.07 205.73c0.17-0.38 0.05-0.85-0.16-1.34 0.37-0.37 0.97-0.47 1.36-0.5 0.15 0.21 0.4 0.45 0.42 0.7-0.55 0.26-0.9 0.69-1.37 0.5-0.1 0.19 0.23 0.72-0.25 0.65"/>
<path d="m616.53 202.57c-0.04-0.1-0.12-0.08-0.16-0.18-0.18 0.21-0.35 0.43-0.59 0.62-0.58-0.31-0.01-0.89 0.3-1.19 0.11 0.14 0.26 0.15 0.34 0.41-0.21-0.57 0.72-1.08 0.93-0.21-0.07 0.41-0.57 0.26-0.82 0.55"/>
<path d="m602.91 209.43c-0.26-0.81 1.24-2.42 1.56-0.99-0.25 0.12-0.54 0.36-0.67 0.08-0.42 0.26-0.53 0.63-0.9 0.91"/>
<path d="m623.68 198.41c-0.08-0.23 0.18-0.42 0.35-0.44 0.02 0.07 0.06 0.09 0.11 0.08 0.2 0.34-0.23 0.73-0.46 0.37"/>
<path d="m600.61 209.75c0.01-0.49 0.24-1.76 1-1.22-0.03 0.51-0.62 0.83-1 1.22"/>
<path d="m616.16 201.72c-0.07 0.06-0.11 0-0.18 0.03-0.13-0.18-0.15-0.34-0.11-0.46 0.24-0.02 0.28 0.23 0.29 0.43"/>
<path d="m609.95 204.42c-0.03-0.43 0.33-1.21 0.98-1.01 0.34 0.5-0.6 1.15-0.98 1.01"/>
<path d="m649.78 183.59c0.1-0.15 0.25-0.29 0.51-0.39 0.89 0.23-0.21 1.33-0.51 0.39"/>
<path d="m620.3 198.9c-0.07-0.22 0.11-0.37 0.33-0.49 0.48 0.29-0.03 0.92-0.33 0.49"/>
<path d="m597.64 210.67c-0.11 0.08-0.2 0.09-0.28 0.08-0.05-0.21 0.17-0.3 0.28-0.08"/>
<path d="m618.42 199.92c-0.2-0.28-0.13-0.47 0.15-0.59 0.32 0.18 0.24 0.65-0.15 0.59"/>
<path d="m677.89 169.54c-0.2 0.1-0.3-0.13-0.41-0.31 0.2-0.13 0.45 0.1 0.41 0.31"/>
<path d="m627.61 194.79c-0.34-0.57-0.1-1.17 0.51-1.29 0.57 0.52 0.27 1.59-0.51 1.29"/>
<path d="m607.21 205.29c-0.1-0.39 0.17-0.84 0.64-0.91 0.19 0.49-0.14 0.73-0.64 0.91"/>
<path d="m610.58 202.48c0.38 0.51-0.25 0.95-0.51 0.65-0.21-0.24 0.03-0.76 0.51-0.65"/>
<path d="m606.77 205.06c-0.07 0.06-0.11 0-0.17 0.03-0.05-0.13-0.09-0.25 0.1-0.31 0.14 0.04 0.05 0.16 0.07 0.28"/>
<path d="m603.07 206.81c-0.67-0.45-0.03-1.46 0.69-1.71 0.05 0.66-0.06 1.27-0.69 1.71"/>
<path d="m618.23 198.91c-0.23 0.1-0.53-0.27-0.14-0.39 0.09-0.19-0.18-0.49 0.07-0.62 0.11 0.1 0.23 0.16 0.32 0.35-0.35 0.22-0.22 0.35-0.25 0.65"/>
<path d="m610.99 202.27c-0.04-0.08-0.09-0.17-0.13-0.26 0.09-0.19 0.39-0.22 0.57-0.29 0.26 0.32-0.17 0.52-0.44 0.55"/>
<path d="m623.55 195.49c0.13-0.14 0.13-0.09 0.29-0.08 0.07 0.16-0.24 0.29-0.29 0.08"/>
<path d="m616.7 198.59c0.13-0.07 0.28-0.18 0.39-0.13 0.33 0.48-0.42 0.68-0.39 0.13"/>
<path d="m610.14 202.12c0.05-0.2 0.15-0.38 0.46-0.49 0.57 0.2-0.14 0.89-0.46 0.49"/>
<path d="m608.52 203.14c-0.1-0.3 0.01-0.54 0.35-0.7 0.27 0.36-0.11 0.51-0.35 0.7"/>
<path d="m616.24 198.95c-0.12 0.01-0.22-0.03-0.31-0.1-0.1-0.19 0.03-0.3 0.25-0.39 0.03 0.07 0.06 0.09 0.1 0.07 0.15 0.2-0.03 0.28-0.05 0.41"/>
<path d="m617.94 197.96l-0.2 0.1c-0.1-0.15-0.07-0.26 0.1-0.31 0.03 0.07 0.07 0.13 0.11 0.21"/>
<path d="m602.2 205.12c0.33 0.5-0.14 0.76-0.67 0.98-0.13-0.44 0.44-0.66 0.67-0.98"/>
<path d="m609.31 201.89c-0.21-0.21-0.08-0.56 0.28-0.72 0.38 0.24 0.15 0.61-0.28 0.72"/>
<path d="m611.06 200.62c-0.23-0.08-0.25-0.35-0.49-0.59 0.11-0.16 0.33-0.47 0.61-0.44 0.21 0.42-0.15 0.66-0.12 1.03"/>
<path d="m601.92 204.68c-0.23 0.11-0.3-0.24-0.1-0.33 0.17 0.05 0.13 0.22 0.1 0.33"/>
<path d="m608.71 201.1c-0.13 0.08-0.23 0.09-0.29-0.05 0.03-0.06 0.09-0.12 0.18-0.15l0.1 0.2"/>
<path d="m604.15 203.35c-0.03-0.12-0.02-0.24 0.18-0.28 0.02 0.05 0.05 0.11 0.08 0.15-0.03 0.1-0.16 0.17-0.26 0.13"/>
<path d="m597.1 206.8c-0.07-0.12-0.13-0.24-0.11-0.34-0.22 0.17-0.37 0.1-0.51 0.01-0.08-0.15 0.01-0.26 0-0.39 0.23-0.02 0.43 0 0.57 0.23 0.18-0.09 0.34-0.07 0.51-0.13 0.32 0.36-0.17 0.59-0.46 0.62"/>
<path d="m605.97 201.57c-0.1-0.22 0.13-0.33 0.36-0.43 0.21 0.24-0.14 0.46-0.36 0.43"/>
<path d="m600.46 204c-0.06-0.24-0.16-0.48-0.08-0.68 0.3-0.18 0.52-0.15 0.67-0.21 0.05 0.24 0.11 0.2 0.23 0.47-0.12 0.32-0.5 0.45-0.82 0.42"/>
<path d="m610.43 198.86c-0.28-0.35 0.07-0.69 0.33-0.49 0.16 0.27-0.05 0.49-0.33 0.49"/>
<path d="m615.99 195.65c-0.1-0.22-0.06-0.39-0.03-0.57 0.2-0.12 0.23 0.26 0.39 0.26 0.07 0.17-0.21 0.22-0.36 0.31"/>
<path d="m607.1 199.97c-0.1 0.07-0.16 0.03-0.23 0.05-0.03-0.1 0.03-0.16 0.16-0.21 0.02 0.05 0.05 0.11 0.08 0.16"/>
<path d="m597.99 204.34c-0.05 0.03-0.11 0.05-0.16 0.08l-0.1-0.2c0.13-0.09 0.21-0.02 0.26 0.12"/>
<path d="m599.19 201.98c0.15-0.11 0.23 0 0.39-0.13 0.47 0.25 1.3 1.06 0.45 1.39-0.58 0.23-1.07-0.64-0.83-1.26"/>
<path d="m596.6 204.79c-0.14-0.24 0.19-0.2 0.33-0.24 0.08 0.12-0.24 0.32-0.33 0.24"/>
<path d="m595.1 205.55c-0.09 0.04-0.17 0.09-0.25 0.13-0.2-0.08-0.5-0.34-0.5-0.59 0.26-0.02 0.47 0.05 0.7 0.1 0.11 0.15 0.03 0.24 0.05 0.36"/>
<path d="m619.09 193.09c-0.06-0.02-0.1-0.12-0.18-0.1-0.12-0.28-0.04-0.49 0.18-0.67 0.31 0.09 0.48 0.68 0 0.78"/>
<path d="m614.02 195.47c-0.13-0.17-0.48-0.19-0.46-0.41 0.25-0.17 0.42-0.06 0.64-0.13 0.21 0.27 0.15 0.45-0.18 0.54"/>
<path d="m618.6 193.02c-0.05 0.03-0.1 0.06-0.15 0.08-0.08-0.13-0.09-0.23 0.05-0.28 0.03 0.07 0.07 0.14 0.1 0.2"/>
<path d="m584.87 210.04c-0.15 0.07-0.32 0.2-0.44 0.16-0.14-0.2 0.17-0.26 0.34-0.37 0.04 0.08 0.07 0.14 0.1 0.21"/>
<path d="m606.88 197.62c0.24 0.34 0.15 0.57 0.24 0.85-0.82 1.1-1.46-1.17-0.24-0.85"/>
<path d="m603.98 199.94c-0.08-0.11-0.1-0.2-0.08-0.28 0.07-0.04 0.14-0.07 0.21-0.11 0.14 0.2 0.05 0.31-0.13 0.39"/>
<path d="m607.15 194.95c0.24 0.12 0.24 0.46 0.11 0.6 0.59 0.73 0.59 2.24-0.58 1.66-0.45-0.79 0.15-1.57 0.48-2.25"/>
<path d="m606.16 197.73c-0.03 0.02-0.07 0.03-0.1 0.05-0.02-0.05-0.05-0.04-0.08-0.03-0.02-0.04-0.04-0.07-0.05-0.1 0.04-0.01 0.04-0.04 0.03-0.08 0.04-0.02 0.07-0.04 0.1-0.05 0.02 0.05 0.05 0.04 0.08 0.02 0.02 0.04 0.04 0.07 0.05 0.1-0.05 0.01-0.04 0.04-0.03 0.08"/>
<path d="m609.81 195.74c-0.16-0.24-0.12-0.41 0.05-0.54 0.54-0.03 0.33 0.64-0.05 0.54"/>
<path d="m585.38 208.23c-0.12 0.07-0.24 0.13-0.34 0.1-0.03-0.14 0.14-0.21 0.23-0.31 0.03 0.07 0.07 0.13 0.1 0.2"/>
<path d="m616.74 192.15c-0.54-0.23-0.76-1.21-0.4-1.55 0.53 0.17 1.25 1.18 0.4 1.55"/>
<path d="m597.09 201.69c-0.06-0.15-0.14-0.07-0.1-0.21 0.18-0.14 0.33 0.15 0.1 0.21"/>
<path d="m628.73 185.28c-0.18-0.26 0.07-0.38 0.34-0.49 0.35 0.35-0.07 0.71-0.34 0.49"/>
<path d="m609.7 195.14c-0.18 0.13-0.33 0.15-0.44 0.03-0.09-0.18 0.04-0.3 0.26-0.39 0.11 0.03 0.22 0.25 0.18 0.36"/>
<path d="m590.93 203.72c0.03-0.12 0.24-0.18 0.31-0.03-0.03 0.12-0.26 0.22-0.31 0.03"/>
<path d="m606.91 194.36c0.04-0.13 0.15-0.23 0.36-0.31 0.44 0.27-0.15 0.68-0.36 0.31"/>
<path d="m580.34 207.87c-0.21 0.12-0.41 0.2-0.52 0.01 0.2-0.1 0.44-0.31 0.52-0.01"/>
<path d="m605.41 194.87c-0.15-0.29-0.15-0.54 0.02-0.72 0.22-0.02 0.41 0.05 0.54 0.31-0.03 0.21-0.31 0.53-0.57 0.42"/>
<path d="m604.23 195.34c-0.1-0.16 0.13-0.3 0.26-0.25 0.03 0.05 0.05 0.1 0.07 0.15-0.03 0.1-0.26 0.24-0.33 0.1"/>
<path d="m606.39 194.24c-0.07-0.12-0.08-0.23-0.02-0.31 0.12-0.09 0.2-0.01 0.26 0.13-0.04 0.07-0.1 0.13-0.23 0.18"/>
<path d="m572.61 210.64c-0.07 0.04-0.14 0.07-0.21 0.1-0.02-0.06-0.06-0.08-0.1-0.08-0.07-0.18 0.27-0.26 0.31-0.03"/>
<path d="m596.11 198.23c-0.04-0.07-0.07-0.14-0.1-0.2 0.14-0.09 0.28-0.15 0.34 0.02-0.04 0.07-0.1 0.13-0.23 0.18"/>
<path d="m619.54 186.06c-0.08-0.12 0.01-0.2-0.03-0.31 0.11 0 0.23 0 0.28 0.18-0.03 0.1-0.16 0.16-0.26 0.13"/>
<path d="m603.37 193.9c-0.09-0.32-0.23-0.65 0.1-0.83 0.49 0.16 0.65 0.8-0.1 0.83"/>
<path d="m602.77 193.49c-0.17 0.14-0.32-0.14-0.1-0.2 0.14 0.06 0.03 0.07 0.1 0.2"/>
<path d="m593.09 198.02c-0.04-0.07-0.07-0.14-0.1-0.21 0.13-0.08 0.23-0.09 0.28 0.05-0.03 0.06-0.09 0.12-0.18 0.16"/>
<path d="m604.87 191.51c-0.24 0.12-0.42 0.06-0.55-0.18 0.06-0.16 0.26-0.1 0.39-0.13 0.05 0.1 0.1 0.2 0.16 0.31"/>
<path d="m605.2 189.72c-0.05-0.17-0.02-0.32 0.18-0.41 0.34 0.2 0.11 0.67-0.18 0.41"/>
<path d="m589.54 197.68c-0.15 0.1-0.25 0.07-0.32-0.1 0.08-0.03 0.14-0.07 0.21-0.1 0.04 0.07 0.07 0.14 0.1 0.21"/>
<path d="m590.03 196.59c0.1-0.16 0.43-0.16 0.54 0.05-0.09 0.14-0.45 0.2-0.54-0.05"/>
<path d="m599.84 191.67c-0.08-0.13-0.1-0.23 0.05-0.29 0.05 0.03 0.1 0.06 0.13 0.13-0.03 0.07-0.09 0.12-0.18 0.16"/>
<path d="m596.7 193.27c-0.28 0.16-0.69 0.13-0.7-0.1 0.21-0.13 0.39-0.14 0.57-0.16 0.04 0.08 0.09 0.17 0.13 0.26"/>
<path d="m598.46 190.62c0.05-0.26 0.08-0.51 0.2-0.74 0.76 0.29 0.44 1.54-0.2 0.74"/>
<path d="m589.14 195.88c-0.52 0.12-0.78-0.52-1.17-0.77 0.42 0.13 1.04 0.2 1.17 0.77"/>
<path d="m591.3 193.88c-0.27 0.16-0.64 0.07-0.65-0.13 0.22-0.13 0.4-0.19 0.57-0.16 0.08 0.11 0.09 0.2 0.08 0.29"/>
<path d="m565.78 206.4c0.24-0.14 0.55-0.29 0.9-0.26-0.09 0.31-0.71 0.47-0.9 0.26"/>
<path d="m595.89 189.27c-0.05 0.03-0.1 0.05-0.15 0.08-0.15-0.19-0.06-0.31-0.19-0.49 0.22-0.11 0.32 0.24 0.34 0.41"/>
<path d="m591.25 190.73c0.25-0.01 0.52 0.02 0.62 0.2 0.34 0.61-0.77 0.45-0.62-0.2"/>
<path d="m601.7 184.37c0.14 0.19 0.06 0.31 0.04 0.44 0.5 0.21 0.33 1.08-0.23 0.96-0.41-0.44-0.28-1.26 0.2-1.4"/>
<path d="m577.48 197.01c-0.08-0.09-0.03-0.15-0.06-0.23 0.14-0.06 0.24-0.02 0.32 0.1-0.05 0.15-0.13 0.07-0.26 0.13"/>
<path d="m640.62 164.71c-0.13 0.13-0.15-0.07-0.2-0.16 0.05-0.03 0.1-0.05 0.15-0.08 0.07 0.1 0.03 0.15 0.05 0.23"/>
<path d="m572.17 199.07c-0.33 0.18-0.57 0.08-0.76-0.2 0.25-0.15 0.21-0.14 0.38-0.26 0.19 0.13 0.33 0.18 0.37 0.46"/>
<path d="m599.63 184.26c-0.35-0.32-0.36-0.86-0.34-1.19 0.38 0.17 0.94 1.09 0.34 1.19"/>
<path d="m614.2 176.72c-0.48-0.49-0.22-1.1-0.29-1.6 0.31 0.31 0.84 1.41 0.29 1.6"/>
<path d="m576.36 193.56c-0.45 0.09-0.87 0.04-1.22-0.22 0.36 0.04 0.79-0.13 1.14-0.06 0.07 0.11 0.09 0.2 0.07 0.28"/>
<path d="m584.79 188.96c-0.15-0.11-0.29-0.23-0.29-0.44 0.25-0.14 0.37 0.07 0.52 0.25-0.04 0.07-0.1 0.14-0.23 0.18"/>
<path d="m588.15 186.02c-0.16 0.06-0.39-0.1-0.34-0.28 0.12-0.07 0.2 0.01 0.31-0.02 0.12 0.14 0 0.2 0.03 0.31"/>
<path d="m588.22 184.49c-0.19 0.16-0.35-0.09-0.31-0.23 0.15-0.04 0.37 0.02 0.31 0.23"/>
<path d="m596.2 180.18c-0.08 0.06-0.12 0-0.18 0.03-0.18-0.11-0.36-0.53-0.05-0.61 0.2 0.19 0.19 0.34 0.24 0.59"/>
<path d="m589.77 178.52c-0.22 0.55 1 0.99 0.73 1.7-0.84-0.04-0.69-1.32-1.32-1.73 0.06-0.04-0.01-0.12-0.03-0.18 0.23-0.17 0.35-0.03 0.49 0.08 0.1-0.1-0.1-0.29 0.15-0.34 0.18 0.47 0.85 0.5 0.73 1.06-0.39 0.14-0.67-0.16-0.76-0.59"/>
<path d="m546.25 198.32c-0.31 0.14-0.55 0.1-0.78 0.01-0.29-0.76 0.89-0.82 0.78-0.01"/>
<path d="m578.8 179.88c-0.19 0.14-0.41-0.01-0.36-0.2 0.14-0.01 0.27 0.06 0.36 0.2"/>
<path d="m594.58 170.37c-0.08 0.02-0.12-0.05-0.2-0.03-0.14-0.25-0.16-0.63 0.07-0.62 0.13 0.24 0.07 0.43 0.13 0.65"/>
<path d="m573.55 178.08c-0.13 0.09-0.21 0.02-0.26-0.12 0.13-0.09 0.23-0.09 0.28 0.04-0.04 0.01-0.04 0.05-0.02 0.07"/>
<path d="m593.12 167.87c-0.65-0.08-0.65-1.21-0.71-1.65 0.37 0.1 0.88 1.29 0.71 1.65"/>
<path d="m573.74 168.52c-0.06-0.12-0.16-0.11-0.2-0.28 0.16-0.11 0.26-0.02 0.39 0 0.1 0.15-0.02 0.22-0.18 0.28"/>
<path d="m605.38 145.11c-0.07 0.03-0.13 0.07-0.2 0.1-0.51-0.56-0.45-1.28-0.48-1.82 0.49 0.26 0.59 1.22 0.68 1.72"/>
<path d="m610.1 130.79c-0.15-0.04-0.33-0.45-0.05-0.49 0.22 0.1 0.05 0.34 0.05 0.49"/>
<path d="m632.81 113.15c-0.14-0.2-0.06-0.33-0.06-0.49 0.18-0.11 0.31-0.09 0.46-0.1 0.13 0.12 0.27 0.23 0.36 0.46-0.24 0.27-0.46 0-0.77 0.13"/>
<path d="m558.06 148.63c-0.43 0.01-0.55-0.39-0.78-0.77-0.16-0.1-0.5-0.16-0.45-0.49 0.17-0.07 0.28 0.03 0.41 0.05-0.08 0.58 0.77 0.59 0.81 1.21"/>
<path d="m552.9 149.96c0.14-0.09 0.28-0.15 0.34 0.03-0.05 0.15-0.29 0.21-0.34-0.03"/>
<path d="m534.43 146.78c-0.07 0.04-0.14 0.07-0.2 0.1-0.15-0.15 0.16-0.39 0.2-0.1"/>
<path d="m550.04 135.8c-0.27-0.05-0.92-0.54-0.57-0.87 0.28 0.23 0.57 0.43 0.57 0.87"/>
<path d="m547.38 136.56c-0.05 0.03-0.1 0.05-0.15 0.08-0.04-0.07-0.07-0.14-0.1-0.2 0.12-0.08 0.2-0.01 0.25 0.12"/>
<path d="m588.89 112.16c-0.15 0.07-0.25-0.02-0.36-0.08 0.04-0.24-0.12-0.29-0.13-0.51 0.32-0.14 0.55 0.32 0.49 0.59"/>
<path d="m542.84 134.4c0.21-0.05 0.23-0.23 0.36-0.18 0.29 0.35-0.25 0.62-0.36 0.18"/>
<path d="m499.86 119.25c1.28-0.97 2.74 0.07 2.38 1.38-0.53 0.45-1.16 1-1.83 0.87-0.29-0.39-0.71-0.44-0.88-0.85-0.23-0.53 0.25-0.91 0.33-1.4"/>
<path d="m517.4 85.77c0.24-0.3 0.65-0.09 0.88 0.07 0.25 0.77-1.06 0.75-0.88-0.07"/>
<path d="m518.98 85.3c-0.03-0.09-0.09-0.06-0.13-0.13-0.07-0.31 0.29-0.51 0.52-0.39 0.14 0.27-0.07 0.52-0.38 0.52"/>
<path d="m502.43 110.29c-0.23 0.14-0.4 0.09-0.52-0.13 0.06-0.17 0.3-0.14 0.44-0.15 0.08 0.11 0.09 0.2 0.08 0.28"/>
<path d="m510.81 89.18c0.15 0.06 0.23 0.36 0.34 0.54-0.38 0.86-1.28-0.2-0.34-0.54"/>
<path d="m512.23 81.39c-0.59-0.37-0.02-1.04-0.22-1.57 0.19-0.01 0.43-0.2 0.59-0.11 0.27 0.69 0.11 1.24-0.38 1.68"/>
<path d="m501.22 61.08c-0.16-0.21-0.05-0.33 0.1-0.44 0.27 0.1 0.18 0.53-0.1 0.44"/>
</g>
<path fill="#3297D4" d="m593.16 10.63c-32.06 0.15-61.08 12.59-82.04 32.62-13.98 13.35-24.4 30.11-29.74 48.85 0.06-0.04 0.1-0.08 0.14-0.12 0.39-0.52 0.35-1.38 1.03-1.64 0.34-0.62 0.42-1.32 0.78-1.9 0.14-0.22 0.49-0.35 0.6-0.58 0.23-0.46-0.01-1.04 0.35-1.45 0.68-0.04 1.02-0.69 1.73-0.68-0.1 0.89-0.66 1.81-1.18 2.48-0.11 0.67-0.09 1.45-0.42 2.02-0.24 0.44-0.74 0.76-0.98 1.29-0.19 0.44-0.14 0.88-0.31 1.34-0.14 0.38-0.55 0.67-0.65 1.1-0.03 0.16 0.06 0.38 0.02 0.55-0.18 0.85-0.53 1.89-0.96 2.62-0.81 1.4-2.08 2.62-1.78 4.26-0.17 0.32-0.61 0.53-0.71 0.9-0.06 0.19 0.1 0.36 0.08 0.56-0.02 0.36-0.22 0.69-0.39 1.02-0.28 1.68-0.51 3.36-0.7 5.05 0.04 0.07 0.07 0.14 0.12 0.21-0.32 0.57-0.17 0.97 0.23 1.34-0.48 1.93-0.3 3.98 0.52 5.52-0.33 1.36-0.91 3.19-0.2 4.26-0.76 0.96 0.09 1.97-0.4 2.99-0.04 0.23 0.18 0.35 0.22 0.55-0.29 0.5-0.12 1.1 0.17 1.5-0.53 1.03-0.69 2.66-0.38 3.73-0.17 1.08-0.16 2.47 0.27 3.46-0.26 0.71 0.17 1.26 0.14 2.03-0.01 0.27 0.23 1.08 0.19 1.45-0.11 1.01 0.28 2.04 0.11 3.1 0.18 0.42 0.23 0.9 0.15 1.42 0.94 4.92 2.21 9.73 3.81 14.41 0.03 0.03 0.04 0.06 0.08 0.09-0.01 0.03-0.01 0.06-0.02 0.08l0.27 0.78c0.03 0.02 0.07 0.04 0.13 0.05-0.05 0.53 0.46 0.93 0.68 1.43 0.14 0.33 0.13 0.7 0.34 1.02 0.24 0.38 0.81 0.85 0.99 1.3 0.14 0.34 0.09 0.66 0.2 1.03 0.36 0.39 0.48 0.88 0.55 1.39 0.71 0.51 0.56 1.37 1.04 1.98-0.25 1.24 1.07 1.83 1.11 2.96 0.82 0.74 0.7 1.76 1.1 2.6 0.14 0.27 0.62 0.32 0.98 0.56 0.49 0.36 0.46 0.99 0.76 1.4-0.62 1.29 1.07 1.99 2.38 2 0.56 0.54 0.68 1.26 0.92 1.94 0.28 0.23 0.66 0.43 0.61 0.8 0.94 0.41 0.61 1.35 1.52 1.77 0.08 0.72 0.56 1.28 1.01 1.85-0.09 1.12 1.52 1.52 1.5 2.61 0.12 0.25 0.3 0.47 0.69 0.6 0.03 1.25 0.47 2.34 0.81 3.46 0.19 0.09 0.3 0.06 0.44 0.09 0.51 1.02 1.18 1.98 1.72 2.99 0.4 0.14 0.52 0.4 0.9 0.55 0.37 0.89 1.21 1.79 2.48 2.15 0.12 0.17 0.16 0.37 0.14 0.59 0.69 0.77 1.36 1.54 2.18 2.25 0.69 0.27 1.19 0.62 1.49 1.04 0.25 0.08 0.4 0.02 0.73 0.07-0.13 0.28 0.47 0.27 0.52 0.47 0.08 1.04 1 1.71 2 2.36 0.04 0.2 0.26 0.32 0.14 0.59 0.31 0.24 0.42 0.56 0.83 0.77 0.3 0.76 0.83 1.43 1.35 2.1 1.26 1.08 2.54 2.13 3.85 3.16 0.09 0 0.18 0.02 0.25 0 0.2 0.34 0.62 0.86 1.18 0.76 0.93 0.72 1.8 1.68 3.07 2.24 0.79 0.34 1.72 0.48 2.2 1.17 0.04-0.04 0.12-0.01 0.2 0.01 0.09 0.03 0.17 0.06 0.21 0 0.8 0.94 2.37 1.04 3.75 1.45 0.18 0.04 0.03 0.23 0.16 0.3 0.63 0.15 1.04 0.66 1.41 0.89 0.13 0.08 0.32 0.06 0.43 0.14 0.07 0.06 0.1 0.24 0.17 0.3 0.61 0.49 1.51 0.76 1.97 1.45 1.15 0.42 1.95 1.23 2.96 1.54 0.38 0.72 1.83 0.8 2.49 1.51 1.41 0.57 2.93 1.22 4.15 2.06 0.14 0.1 0.21 0.28 0.36 0.37 0.92 0.52 2.1 0.67 2.69 1.51 0.2 0 0.46 0.1 0.65 0.1 0.04 0.4 0.63 0.72 1.18 0.76 0.32 0.26 0.68 0.5 1.05 0.74 13.67 5.25 28.62 8.12 44.28 8.04 32.05-0.15 61.08-12.59 82.04-32.62 4.08-3.89 7.84-8.07 11.28-12.51-0.6 0.72-1.23 1.43-1.9 2.13-0.12 0.7-1.22 1.08-1.32 1.79-0.18 0.14-0.18 0.14-0.39 0.2-0.92 1.04-1.96 2.28-3.24 3.26-0.46 0.36-0.85 1.04-1.26 1.4-0.16 0.13-0.38 0.18-0.53 0.32-0.12 0.12-0.11 0.29-0.22 0.42-0.7 0.87-1.96 1.25-2.45 2.24-0.33 0.14-0.58 0.31-0.66 0.53-0.13 0.02-0.28 0.08-0.4 0.08-1.1 1.26-2.76 2.15-3.71 3.3-0.09 0.08-0.14 0.06-0.19 0.04-0.04-0.02-0.09-0.03-0.15 0.01-1.1 1.16-2.75 1.84-3.64 2.96-0.2 0.09-0.38 0.14-0.54 0.16-0.18 0.07-0.1 0.23-0.27 0.32-1.26 0.49-1.83 1.51-2.88 2.02-0.64 0.32-1.53 0.36-1.84 0.99-0.87 0.63-2 0.84-2.81 1.43-0.32 0.24-0.55 0.63-0.88 0.82-0.2 0.12-0.49 0.12-0.69 0.23-0.17 0.1-0.24 0.36-0.44 0.47-0.4 0.23-1.38 0.01-1.55 0.73-0.29 0.02-0.56 0.01-0.83 0-0.48-0.01-0.95-0.02-1.41 0.08-0.65 0.36-1.11 1.09-1.84 1.37-0.3 0.11-0.64 0.03-0.97 0.17-0.3 0.14-0.63 0.27-1.03 0.4-0.34 0.11-0.54 0.35-0.81 0.47-0.07 0.04-0.16 0.04-0.25 0.03-0.08 0-0.16 0-0.22 0.02-0.61 0.23-1.25 0.78-1.98 1-0.48 0.14-1 0.23-1.5 0.33-0.16 0.09-0.21 0.22-0.42 0.28-0.52 0-1.41 0.17-1.74 0.7-0.5 0.1-1.48 0.35-1.97 0.88-0.34-0.04-0.62 0.26-1.01 0.33-0.04 0-0.09 0-0.14-0.01-0.06-0.01-0.14-0.02-0.18-0.01-0.61 0.14-1.12 0.59-1.67 0.72-0.14 0.04-0.3 0.01-0.45-0.02s-0.3-0.06-0.44-0.03c-0.74 0.17-1.39 0.65-2.19 0.68-0.12 0.1-0.22 0.2-0.34 0.31-0.94 0.16-2.1 0.52-3.08 0.51-0.42 0.47-0.91 0.46-1.35 0.38-0.15-0.34 0.28-0.83 0.68-0.73 0.36-0.43 0.79-0.58 1.26-0.58 0.17-0.12 0.27-0.27 0.41-0.39 0.63 0.05 1.29-0.31 1.94-0.43 0.08-0.01 0.16 0 0.24 0 0.09 0.01 0.18 0.02 0.26 0 0.35-0.11 0.67-0.4 1.1-0.63 1.04-0.53 2.46-0.71 3.27-1.23 1.26-0.8 3.45-1.26 4.77-2.43 1.17-0.14 2.05-0.9 3.27-1.48 0.23-0.04 0.04-0.2 0.17-0.28 0.83 0.11 1.62-0.67 2.56-1.17 0.14-0.08 0.38-0.12 0.52-0.2 0.43-0.28 0.74-0.73 1.13-0.94 0.35-0.2 0.74-0.19 1.03-0.41 0.14-0.1 0.19-0.32 0.34-0.42 0.31-0.22 0.66-0.22 0.99-0.38 0.21-0.11 0.33-0.33 0.52-0.45 0.34-0.22 0.68-0.25 0.98-0.5 0.24-0.21 0.39-0.52 0.69-0.73 1.08-0.76 2.43-1.19 3.24-2.26 0.16-0.07 0.34-0.22 0.47-0.18 0.13-0.12 0.25-0.24 0.29-0.4 0.62-0.07 0.75-0.8 1.36-0.87 2.19-1.71 4.01-3.73 6.53-5.42 0.16-0.14 0.14-0.33 0.32-0.47 1.23-0.56 1.49-1.79 2.77-2.47 0.2-0.13 0.11-0.34 0.25-0.5 0.62-0.23 0.87-0.8 1.2-1.17 0.41-0.48 1-0.81 1.35-1.25 0.12-0.14 0.18-0.37 0.29-0.52 0.26-0.31 0.64-0.5 0.88-0.81 0.3-0.4 0.39-0.98 0.96-1.17 0.01-0.56 0.83-0.85 0.53-1.51 0.4-0.46 0.81-0.88 1.35-1.37-0.1-0.71 1.17-0.99 1.12-1.69 0.12-0.04 0.23-0.04 0.35-0.05 0.13-0.38 0.47-0.69 0.78-1.02 0.15-0.49 0.64-0.68 0.98-0.99 1.01-0.93 1.52-2.23 2.47-3.18 0.13-0.11-0.07-0.32 0.02-0.44 0.15-0.05 0.32-0.12 0.49-0.19-0.02-0.18-0.04-0.37-0.07-0.58-0.45 0.14-0.04 0.56-0.41 0.73-0.25-0.54 0.04-1.25 0.51-1.69-0.04-0.19 0-0.37-0.1-0.59 0.18-0.23 0.37-0.45 0.4-0.72-0.14-0.08-0.27-0.03-0.41 0.03-0.12 0.05-0.25 0.1-0.39 0.05-0.2 0.1-0.1 0.31-0.23 0.44-0.96 0.43-1.32 1.2-1.67 1.95-1.19 0.82-2.08 2.1-2.85 3.2-1.04 0.61-1.79 1.56-2.38 2.44-0.35 0.18-0.7 0.23-0.95 0.55-0.07 0.1-0.04 0.3-0.13 0.39-0.27 0.26-0.66 0.23-0.85 0.62-0.39 0.03-0.59 0.25-1.01 0.32-0.77 0.74-1.93 1.32-2.85 2.04-0.16 0.4-0.61 0.54-0.87 0.82-0.37 0.41-0.46 0.88-0.87 1.22-0.1 0.08-0.27 0.1-0.36 0.18-0.29 0.29-0.42 0.61-0.69 0.81-0.28 0.2-0.68 0.15-1.03 0.39-0.28 0.19-0.38 0.53-0.59 0.75-0.38 0.01-0.55 0.21-0.64 0.53-0.49-0.16-0.9 0.53-1.57 0.86-0.11 0.05-0.39 0.11-0.44 0.16-0.42 0.36-0.28 1.07-0.59 1.39-1.1 0.01-1.26 1.71-2.39 1.29 0 0.48-0.62 0.3-0.92 0.47-0.21 0.12-0.25 0.35-0.49 0.44-0.14 0.05-0.28 0.04-0.42 0.02-0.17-0.01-0.35-0.03-0.51 0.06-0.36 0.19-0.32 0.46-0.64 0.78-0.84-0.11-2.37 0.33-2.42 1.36-0.26 0.05-0.62 0.02-0.82 0.28-0.35-0.24-0.81-0.14-1.27-0.05-0.29 0.06-0.59 0.13-0.85 0.09-0.25 0.34-0.77 0.71-1.06 0.21-0.8 0.03-1.76 0.57-2.42 0.2-2.58 0.73-4.92 2.39-7.53 3.04-0.14-0.71-0.42-1.59-0.2-2.29 0.09-0.28 0.35-0.57 0.45-0.89 0.15-0.42 0.15-0.97 0.33-1.26 0.24-0.38 0.79-0.54 1-0.96-0.12-0.55 0.39-0.58 0.28-0.98-0.28-0.96-3.07 0.37-2.34 1.5 0.21 0.32 0.51 0.16 0.78 0.52-0.25 0.9-0.67 1.73-1.17 2.54-0.74 0.34-0.66 1-1.21 1.33-0.31 0.18-1.05 0.03-1.11 0.5-0.13 0.92 1.65 1.18 1.21 2.11-0.13 0.06-0.24 0.06-0.34 0.05s-0.21-0.02-0.33 0.04c-0.12-0.16-0.09-0.26-0.13-0.39-0.84-0.61-1.75-0.98-2.8-0.91-0.11-0.2-0.2-0.27-0.39-0.51-0.23 0.1-0.01 0.34-0.07 0.49-0.31 0.22-0.6 0.44-0.75 0.7-0.23 0.05-0.45 0.05-0.72 0.24-1.3-0.46-2.84-0.16-4.17-0.54-0.43-0.48-0.68-1.75-1.35-1.39-0.37 0.2-0.25 0.8-0.02 1.37-1.31-0.23-3.61 0.84-4.35 2.15 0-0.29-0.09-0.35-0.31-0.49-0.17 0.07-0.22 0.18-0.31 0.28 0.09 0.34 0.32 0.24 0.47 0.41-0.07 0.12-0.22 0.22-0.13 0.39-0.29 0-0.39 0.08-0.77 0.27-0.15 0.08 0.06 0.28 0 0.38-0.25 0.17-0.66 0.11-0.9 0.4-0.1 0.24 0.03 0.35 0.19 0.62-0.07 0.28-0.18 0.54-0.46 0.76-0.14 0.42-0.07 0.92-0.14 1.37-0.57 0.43-0.8 0.97-0.97 1.53-0.65 0.56-0.85 0.68-1.74 1.02-0.05-0.1-0.11-0.21-0.16-0.31-0.11-0.01-0.19 0.04-0.27 0.09-0.09 0.06-0.18 0.13-0.3 0.07-0.13-0.32 0.15-0.5-0.11-0.85-0.45 0.03-0.34 0.52-0.58 0.75-0.28-0.18-0.6-0.06-0.92 0.06-0.4 0.14-0.79 0.28-1.07-0.14-0.22 0.05-0.08 0.21-0.26 0.25-0.14-0.2-0.41-0.02-0.57-0.22-0.15 0.15-0.46 0.1-0.46 0.24-0.84-0.15-1.76-0.06-2.77 0.3-0.14-0.14-0.33-0.14-0.47-0.28-0.53 0.18-0.98 0.11-1.43 0.04-0.32-0.04-0.63-0.1-0.97-0.06-0.11-0.14 0.09-0.19-0.06-0.36-0.42 0.14-0.72 0.52-1.16 0.27 0.01-0.19 0.3-0.3 0.33-0.49-0.38-0.32-0.58 0.37-0.7 0.55-1.22 0.57-2.1 0.12-3.3 0.64-0.44-0.29-0.91-0.47-1.5-0.28-0.4-0.27-0.89-0.24-1.43-0.12-0.71-0.21-1.5-0.2-2.25-0.34-0.06-0.14-0.12-0.26-0.21-0.28-1.2-0.5-2.41-0.42-3.85-0.31-0.11-0.19-0.32-0.09-0.41-0.31-0.11 0.08-0.15 0.18-0.34 0.23-0.96-0.59-2.17-0.47-3.34-0.44-0.05-0.13-0.12-0.25-0.21-0.28-1.74-0.32-3.48-0.65-5.09-1.36-0.18 0.13-0.27 0.02-0.44 0.15-0.2-0.19-0.46-0.16-0.68-0.3-0.98 0.25-1.94 0.12-3.02 0.3-0.13-0.1-0.28-0.1-0.39-0.25-0.21 0.06-0.21 0.19-0.39 0.26-0.09-0.18-0.18-0.14-0.3-0.1-0.06 0.02-0.13 0.04-0.2 0.03-0.39-0.12-0.67-0.56-1.01-0.72-0.49-0.23-1.16 0.06-1.79-0.33-0.31-0.18-0.67-0.64-1.14-0.19-0.38-0.27-0.67-0.84-1.17-0.77-0.32-0.47-0.59-1.08-1.06-1.08-0.07-0.12-0.13-0.24-0.11-0.33-0.27 0.06-0.34-0.14-0.59-0.28-0.63-0.33-1.54 0-2.12-0.6-0.17 0.07-0.33 0.13-0.47 0.1-0.44-0.05-0.86-0.17-1.22-0.48-0.93 0.17-1.73-0.08-2.38-0.73-0.58-0.14-1.08-0.53-1.61-0.87 0-0.09-0.19-0.23-0.08-0.28-0.65-0.1-1.08-0.9-1.79-0.84-0.38-0.57-0.9-0.76-1.3-1.28-0.74 0.16-1.3-0.23-1.86-0.62-0.53-0.37-1.07-0.74-1.76-0.64-0.15-0.21-0.37-0.2-0.57-0.23-0.07-0.38-0.28-0.55-0.42-0.95-0.37-0.23-0.82-0.2-1.19-0.43-0.3-0.71-1.22-0.57-1.66-1.1-0.1-0.12-0.1-0.3-0.21-0.41-0.33-0.37-0.77-0.62-1.17-0.9-0.12-0.16-0.06-0.28-0.08-0.42-1.16-0.05-1.8-1.65-2.78-2.28 0.02-0.25-0.25-0.6-0.16-0.83-0.33-0.17-0.29-0.52-0.47-0.8-0.29-0.48-0.82-0.83-1.04-1.28-0.14-0.31-0.1-0.73-0.23-0.98-0.41-0.74-1.39-1.12-1.73-1.72-0.22-0.38-0.11-0.78-0.29-1.08-0.14-0.23-0.47-0.31-0.67-0.56-0.18-0.23-0.17-0.63-0.52-0.78-0.02-0.35-0.34-1.11-0.66-1.54-0.29-0.39-0.91-0.88-1.32-1.33-0.56-0.61-0.84-1.31-1.28-2.01-0.45-0.69-1.33-1.16-1.87-1.9-0.16-0.21-0.23-0.56-0.39-0.77-0.12-0.14-0.34-0.18-0.41-0.31-0.16-0.24-0.12-0.56-0.27-0.77-0.16-0.24-0.54-0.44-0.78-0.77-0.42-0.58-0.78-1.67-1.44-1.8-0.25-0.51-0.53-0.8-0.84-1.25-0.22-0.35-0.65-0.5-0.76-0.84-0.06-0.21 0.09-0.48 0.05-0.68-0.18-0.8-0.91-1.87-1.36-2.67-0.18-1.6-1.82-3.17-2.35-4.63 0.16-0.98-0.74-2.31-1.65-2.6-0.53-1.12-1.44-1.95-1.65-3.11-0.85-1.34-0.43-2.37-1.44-3.61-0.05-0.18 0.04-0.33 0-0.52-1.56-3.1-1.49-5.67-2.49-8.58-0.09-0.17-0.02-0.29-0.02-0.44-0.4-0.24-0.53-0.88-0.2-1.13-0.34-0.56-0.15-1.12-0.37-1.5 0.26-0.52 0.46-1.05 0.22-1.74 0.15-0.37-0.1-1.09-0.53-1.28-0.12-0.17 0.12-0.22 0-0.39-0.89-0.93-0.46-2.18-0.62-3.26-0.53-0.71-0.4-1.54-0.56-2.24-0.05-0.21-0.2-0.37-0.23-0.59-0.04-0.26 0.06-0.56 0.02-0.85-0.09-0.58-0.3-0.94-0.01-1.42-0.12-0.21-0.08-0.37-0.23-0.6 0.37-1.29-0.36-2.95 0.13-4.21-0.48-1.14 0.24-1.89 0.6-2.77-0.52-1.26 0.63-1.97 0.1-3.23 0-0.24 0.16-0.44 0.26-0.65-0.03-0.14-0.04-0.28-0.16-0.44 1.02-1.83-0.45-4.47 0.55-6.31-0.14-0.19-0.09-0.33-0.18-0.49 0.28-0.3 0.09-0.75 0.3-1.07-0.36-0.99 0.2-1.69 0.11-2.58 0.14-0.04 0.07-0.15 0.23-0.18 0.03-1.51 0.24-2.96 0.56-4.37-0.18-0.3-0.04-0.45-0.26-0.65 0.45-0.47 0.24-1.15 0.58-1.66-0.04-0.09-0.09-0.17-0.13-0.26 0.44-0.65 0.52-1.41 0.51-2.21 0.33-0.52 0.41-0.89 0.92-1.37 0.31-0.77 0.48-1.59 0.96-2.31 0.04-0.27 0.1-0.54 0.18-0.8-0.08-0.16-0.16-0.31-0.24-0.47 0.19-0.14 0.23-0.33 0.41-0.46-0.18-0.92 0.58-1.54 0.45-2.44 0.49-0.43 0.26-1.08 0.33-1.65 0.04-0.08 0.1-0.14 0.23-0.18 0.46-1.59 1.24-3.06 1.73-4.63 0.31-0.13 0.32-0.51 0.54-0.74 0.07-0.06 0.25-0.07 0.31-0.15 0.16-0.22 0.18-0.51 0.31-0.8 0.46-0.99 1.36-1.69 1.37-2.77 0.16-0.12 0.18-0.29 0.32-0.42 0.17-0.23-0.03-0.58 0.33-0.75v-0.52c0.41-0.42 0.76-0.84 0.64-1.43 0.59-0.77 0.98-1.6 1.04-2.54 0.18-0.14 0.27-0.29 0.43-0.42 0.31-0.51 0.77-0.84 1.03-1.42 0.09-0.22 0.04-0.51 0.15-0.73 0.18-0.34 0.5-0.51 0.67-0.86 0.26-0.54 0.5-0.97 0.45-1.53 0.98-0.8 1.01-1.9 2.24-2.62 0.14-0.16 0.2-0.34 0.33-0.5 0.1-0.09 0.17-0.06 0.23-0.03s0.12 0.05 0.21 0c0.19-0.06 0.03-0.24 0.23-0.31-0.08-0.22-0.22-0.21-0.29-0.44 0.48-0.35 0.62-1.02 1.22-1.19 0.85-1.26 1.84-2.49 2.68-3.76 0.11-0.15 0.08-0.35 0.13-0.51 0.41-0.26 0.84-0.5 0.93-0.86 0.45-0.43 1.47-0.96 1.56-1.64 0.11-0.1 0.2-0.19 0.39-0.26 0.41-0.72 0.59-1.44 1.33-1.97 0.13-0.12 0.18-0.28 0.15-0.47 1.19-0.74 1.27-1.85 2.51-2.58 0.44-0.67 1.51-0.93 1.56-1.77 0.38-0.14 0.69-0.62 0.88-0.96 0.69-0.39 1.71-1.01 2-1.67 0.34-0.08 0.66-0.1 1.01-0.18 0.3-0.6 1.06-1.09 1.59-1.72 0.22-0.26 0.16-0.32 0.59-0.62 0.44-0.32 0.67-0.71 1.18-0.99 0.41-0.22 0.99-0.89 1.57-1.26 0.56-0.35 1.94-0.78 2.26-1.4 1.1-0.48 1.77-1.33 2.49-1.98 0.33-0.07 0.48-0.09 0.59-0.36 0.16-0.09 0.28-0.06 0.42-0.08 0.54-0.79 2.04-1.06 2.36-1.98 0.88-0.24 1.52-1 2.25-1.46 0.17-0.11 0.39-0.11 0.54-0.21 0.22-0.15 0.39-0.53 0.79-0.73 0.76-0.39 1.66-0.69 2.52-1.15 0.09-0.15 0.25-0.26 0.31-0.42 0.79-0.26 1.3-0.79 1.98-1.07 0.98-0.42 2.03-0.6 3.04-1.02 0.74-0.33 1.37-0.92 2.11-1.21 0.21-0.08 0.47-0.03 0.72-0.11 0.24-0.07 0.48-0.29 0.73-0.36 0.32-0.1 0.73-0.06 1.08-0.16 0.3-0.09 0.59-0.3 0.85-0.36 0.07-0.01 0.15 0 0.23 0.01s0.16 0.03 0.23 0.01c0.37-0.08 0.67-0.37 1.01-0.45 0.56-0.13 1.54-0.46 2.27-0.64 0.1-0.02 0.18-0.01 0.27 0 0.08 0.01 0.15 0.02 0.24 0 0.7-0.13 1.42-0.62 2.12-0.17 0.14-0.07 0.28-0.14 0.41-0.21 0.56 0.03 1.11-0.19 1.7-0.21 0.08 0 0.16 0.03 0.25 0.05 0.1 0.03 0.21 0.06 0.32 0.04 0.21-0.03 0.41-0.19 0.6-0.23 0.1-0.02 0.22-0.01 0.33 0s0.22 0.02 0.32 0c0.28-0.06 0.52-0.27 0.8-0.34 0.63-0.15 1.35 0.05 1.88-0.38 0.62 0.01 1.27-0.07 1.93-0.16 0.92-0.13 1.84-0.25 2.67-0.1 1.07-0.16 2.21-0.43 3.35-0.8 0.42-0.14 0.74-0.38 1.13-0.45 0.37-0.07 1.1-0.09 1.6-0.3 0.79-0.33 1.47-0.89 2.24-1.07 0.09-0.02 0.18 0 0.28 0.02 0.09 0.02 0.17 0.04 0.26 0.03 0.25-0.05 0.49-0.27 0.8-0.34 0.35-0.09 0.79 0 1.05-0.09 0.5-0.16 0.81-0.46 1.27-0.44 0.36 0.01 0.72 0.08 1.14 0.07 0.34-0.01 0.67 0 1 0.01 0.6 0.02 1.18 0.04 1.82-0.08 0.5 0.2 1.09 0.15 1.68 0.09 0.64-0.06 1.28-0.12 1.81 0.14 0.14-0.1 0.24-0.09 0.34-0.08 0.1 0 0.21 0.01 0.35-0.09 0.88 0.5 2.02 0.23 2.92 0.65 0.27-0.09 0.5-0.06 0.73-0.02 0.28 0.04 0.55 0.09 0.9-0.09 0.55 0.19 1.15 0.17 1.79 0.07 0.32 0.23 0.73 0.2 1.06 0.43 1.86-0.1 3.35 0.96 5.04 1.39 1.04 0.71 2.27 0.85 3.37 1.39 0.76-0.04 1.36 0.41 2.1 0.43 0.45 0.45 1.01 0.58 1.53 0.84 0.7 0.78 1.62 0.94 2.34 1.66 1.28 0.56 2.29 1.91 3.63 2.29 0.42 0.51 0.97 0.65 1.51 0.8 0.84 0.62 1.77 0.98 2.7 1.36 0.52 0.37 0.97 1 1.56 1.15 0.24 0.35 0.48 0.7 0.83 0.74 1.07 1.24 2.92 0.81 3.69 2.53 0.84 0.58 1.53 1.65 2.47 1.92 0.33 0.48 0.72 0.78 1.17 0.9 0.47 0.74 1.03 1.22 1.62 1.64 0.07 0.14 0.14 0.28 0.21 0.41 1.24 1.24 2.48 2.5 3.82 3.44 0.59 1.74 2.28 1.87 2.9 3.52 0.16 0.12 0.33 0.23 0.49 0.33 0.1 0.46 0.46 0.52 0.7 0.75 0.69 0.67 1.21 1.54 1.85 2.36 0.49 0.63 1.18 1.09 1.69 1.67 1.24 1.42 2.27 3.02 3.54 4.29 0.8 1.65 2.14 3.04 2.9 4.68 0.09 0.19 0.1 0.37 0.21 0.54 0.09 0.15 0.28 0.22 0.39 0.39 0.2 0.3 0.22 0.77 0.42 1.08 0.15 0.24 0.54 0.49 0.73 0.93 0.21 0.47 0.11 0.94 0.4 1.41 0.56 0.94 1.23 2.16 1.68 3.29 0.13 0.34 0.15 0.69 0.37 0.98 0.21 0.28 0.47 0.53 0.68 0.95 0.38 0.8 0.8 1.46 1.33 2.24 0.5 0.72 1.07 1.65 1.36 2.42 0.06 0.15 0.02 0.33 0.11 0.47 0.29 0.51 0.94 0.95 1.17 1.8 0.1 0.36-0.09 0.85 0.19 1.4 0.13 0.25 0.41 0.38 0.53 0.64 0.07 0.17 0.01 0.36 0.08 0.54 0.13 0.38 0.6 0.72 0.47 1.18 0.17 0.24 0.38 0.35 0.57 0.49-0.15 0.54 0.33 1.28-0.02 1.75 0.52 0.11 0.69 1.24 1.18 1.41 0.08 0.53 0.04 1.24 0.25 1.88 0.05 0.17 0.22 0.34 0.26 0.51 0.06 0.23-0.04 0.48 0.03 0.7 0.1 0.3 0.33 0.53 0.42 0.83 0.25 0.76 0.28 1.54 0.25 2.14 0.69 1.51 1.87 3.05 1.6 4.43 0.07 0.17 0.19 0.22 0.29 0.32-0.09 0.42 0.11 0.95-0.02 1.36 0.74 1.25 0.69 2.65 1.26 3.76 0.08 0.16 0.22 0.29 0.28 0.44 0.23 0.56 0.21 1.28 0.43 1.85 0.05 0.14 0.22 0.25 0.26 0.39 0.2 0.68 0.09 1.83 0.02 2.58-0.03 0.25-0.1 0.52-0.08 0.75 0.05 0.31 0.26 0.6 0.27 0.9 0 0.38-0.16 0.7-0.1 1.08 0.06 0.3 0.22 0.58 0.32 0.88 0 1.48-0.38 3.06 0.26 4.6-0.21 0.47-0.02 1.08 0.06 1.65-0.3 2.03-0.12 4.22 0.18 6.46-0.31 0.65-0.42 1.34-0.53 2.15-0.08 0.59-0.06 1.07-0.12 1.68-0.03 0.27-0.15 0.47-0.15 0.72 0.02 0.76 0.13 1.57 0.09 2.35 0 0.1-0.16 0.2-0.17 0.29s0.1 0.23 0.11 0.34c0 0.19-0.13 0.4-0.13 0.52 0 0.14 0.13 0.27 0.13 0.38 0.01 0.42-0.31 0.67-0.41 1.11-0.13 0.66 0 1.4-0.53 1.9 0.21 1.31-0.64 2.27-0.52 3.56-0.08 0.19-0.21 0.36-0.31 0.54 0.27 1.42-0.46 2.52-0.82 3.73 0.07 0.13 0.14 0.27 0.21 0.41-0.04 0.22-0.28 0.37-0.05 0.67-0.32 0.72-1.09 1.31-0.97 2.18-0.08 0.07-0.07 0.18-0.2 0.23-0.06 0.48 0.03 1.01-0.25 1.42 0.19 0.29 0.08 0.49 0.11 0.72-1.32 1.05-0.68 2.73-1.97 3.79-0.2 1.03-0.83 2.02-1.06 3.13-0.12 0.58-0.67 1.13-0.8 1.76 0.07 0.14 0.14 0.28 0.21 0.41-0.34 0.19-0.6 0.41-0.46 0.75-0.25 0.1-0.39 0.25-0.52 0.39 0.02 1.07-1.33 1.91-0.81 3-0.35 0.48-0.99 0.74-0.48 1.35 0.23 0.28 0.84 0.21 1.13 0.51 0.27-0.5 0.71-0.95 0.74-1.53 0.38-0.33 0.56-0.72 0.74-1.1-0.1 0.01-0.19 0-0.28-0.04 0-0.21 0.07-0.38 0.1-0.57-0.14-0.19-0.37-0.1-0.6 0-0.16 0.06-0.33 0.13-0.46 0.09 0.03-0.62 1.12-1.05 1.54-1.3-0.15 0.33 0.14 0.68 0.21 1.04 0.03-0.03 0.04-0.07 0.08-0.1-0.03-0.24-0.03-0.48-0.13-0.74 0.07-0.18 0.2-0.34 0.22-0.54 0.67-0.36 0.91-0.85 0.88-1.44 0.79-1.41 1.01-3.01 1.92-4.38 0.12-0.47 0-1.01 0.48-1.36 0.28-1.16 0.76-2.25 1.14-3.37 0.05-0.11-0.12-0.28-0.07-0.39 0.27-0.41 0.39-0.95 0.51-1.44 0.02-0.09 0.18-0.16 0.19-0.22 0.04-0.16-0.05-0.35 0-0.5 0.07-0.2 0.25-0.37 0.32-0.6 0.06-0.21 0.02-0.45 0.1-0.67 0.13-0.37 0.43-0.69 0.51-1.06 0.03-0.14-0.06-0.34-0.03-0.54 0.04-0.21 0.23-0.44 0.24-0.61 0.01-0.18-0.13-0.38-0.1-0.57 0.05-0.39 0.45-0.76 0.27-1.19 0.8-0.88 0.37-2.15 0.82-3.14-0.02-0.15-0.03-0.3-0.13-0.49 0.33-0.44 0.3-1.08 0.46-1.65 0.07-0.28 0.3-0.54 0.31-0.84 0-0.17-0.14-0.28-0.15-0.41-0.03-0.28 0.04-0.8 0.14-1.07 0.04-0.12 0.2-0.22 0.24-0.37 0.1-0.37-0.04-0.83 0.26-1.19-0.1-0.2-0.07-0.35-0.23-0.56 0.06-0.45 0.43-0.79 0.2-1.34 0.17-0.23 0.19-0.51 0.44-0.71 0.38-1.56 0.89-3.08 1.31-4.63-0.04-0.17-0.14-0.15-0.2-0.27-0.15-0.98 0.24-2.15-0.12-3.15-0.15-0.44-0.5-0.86-0.55-1.33-0.04-0.32 0.14-0.97 0.18-1.46 0.07-0.75 0.55-1.39-0.09-2.24 0.03-0.33 0.35-0.87-0.14-1.11 0.13-0.53-0.33-1.26-0.09-1.75-0.01-0.18-0.09-0.14-0.18-0.34 0.1-1.24-0.29-2.64-0.54-4 0.48-0.34-0.12-0.81-0.26-1.35-0.12-0.48 0.18-0.73 0.12-1.12-0.15-0.3-0.3-0.58-0.5-0.74 0.14-0.56 0.18-1.17 0.21-1.78-0.61-0.69 0.03-1.47-0.68-2.19 0.15-0.52-0.03-1.02-0.26-1.6-0.07-0.18 0-0.52-0.08-0.76-0.04-0.15-0.18-0.3-0.2-0.4-0.09-0.38 0.14-0.83-0.33-1.26-0.06-0.17 0.21-0.26 0.14-0.45-0.3-0.8-0.57-1.58-0.83-2.61-0.16-0.63-0.13-1.33-0.33-1.87-0.09-0.26-0.28-0.45-0.35-0.69-0.22-0.72-0.14-1.42-0.41-2.27-0.09-0.16-0.18-0.29-0.3-0.34 0.22-0.65-0.49-1.61-0.44-2.32-0.87-1.58-1.15-3.3-1.02-4.68-0.37-0.83-0.87-1.33-0.87-1.96-0.14-0.5-0.95-0.93-1.07-1.38-0.1-0.38 0.28-0.7 0.44-1.09 0.7 0.85 1.14 2.1 1.69 2.85-0.08 0.3 0.44 0.8 0.16 1.03 0.06 0.08 0.14 0.08 0.23 0.07 0.06 0 0.13 0 0.18 0.02 0.54 1.07 1.79 2.25 1.58 3.35 0.69 0.86 0.85 1.75 1.13 2.71 0.1 0.33 0.32 0.61 0.4 0.91 0.22 0.77 0.28 1.46 0.6 2.17 0.07 0.14 0.21 0.27 0.28 0.42 0.15 0.37 0.14 0.79 0.28 1.16 0.18 0.47 0.41 0.94 0.61 1.43 0.23 0.58 0.64 1.1 0.85 1.67 0.12 0.33 0.03 0.76 0.13 1.11 0.1 0.33 0.31 0.6 0.4 0.91 0.28 0.9 0.57 1.81 0.71 2.73 0.5 1.25 0.93 2.48 1.21 3.72 0.19 0.85 0.47 1.51 0.68 2.32 0.25 0.96 0.54 2.03 0.59 3.11 0 0.15-0.11 0.27-0.1 0.42 0.05 0.58 0.31 1.16 0.28 1.65-0.01 0.21-0.16 0.44-0.16 0.64-0.01 0.21 0.14 0.41 0.13 0.61-0.01 0.17-0.16 0.31-0.2 0.47-0.02 0.14 0.07 0.3 0.06 0.47-0.07 0.56-0.41 0.95-0.07 1.46-0.07 0.86 0.29 1.64 0.29 2.52 0 0.5-0.24 1.02-0.21 1.53 0.01 0.21 0.18 0.42 0.2 0.64 0.01 0.14-0.11 0.28-0.09 0.42 0.03 0.27 0.24 0.52 0.27 0.79 0.06 0.49-0.15 0.92-0.01 1.43 0.03 0.1 0.15 0.22 0.18 0.34 0.13 0.61-0.03 1.24 0.14 1.85-0.07 0.14-0.05 0.32-0.22 0.42 0.02 0.14 0.08 0.28 0.07 0.4-0.27 0.86 0.06 1.91-0.12 2.79-0.11 0.08-0.18 0.16-0.25 0.25 0.31 0.44-0.1 0.65 0.1 1.07-0.04 0.08-0.15 0.14-0.2 0.23-0.07 1.43-0.18 2.84-0.39 4.22-0.47 0.34-0.32 0.84-0.41 1.39-0.11 0.68-0.56 1.31-0.51 1.92 0.02 0.22 0.18 0.42 0.2 0.64 0.03 0.35-0.21 0.76 0.06 1.08-0.23 0.47-0.04 0.97-0.14 1.44-0.16 0.76-0.69 1.45-0.51 2.3-0.45 0.53-0.48 1.21-0.82 1.78 0.28 0.63-0.02 1.07 0.08 1.63-0.67 0.97-0.49 2.22-1.16 3.19 0.14 0.37-0.01 0.77-0.12 1.11-0.13 0.44-0.47 1.01-0.56 1.46-0.08 0.4 0.14 0.97-0.34 1.29 0.02 0.25-0.02 0.48 0 0.74-0.15 0.34-0.38 0.63-0.53 1.02-0.08 0.2 0 0.46-0.1 0.67-0.13 0.27-0.41 0.47-0.54 0.76-0.25 0.57-0.44 1.24-0.58 1.91-0.13 0.57-0.24 0.98-0.12 1.6-0.58 0.91-0.98 1.88-1.7 2.73-0.24 1.41-0.81 2.71-2.02 3.81-0.22 0.83-0.34 1.69-0.58 2.52-0.61 0.38-0.59 0.97-0.74 1.5 9.27-15.92 14.52-34.24 14.42-53.71-0.14-30.49-13.36-58.05-34.52-77.86-21-19.65-49.91-31.78-81.72-31.78h-0.6m-58.32 23.23c0.47-0.22 0.63-0.83 1.16-0.93 0.56 0.38 1.23 0.08 1.78 0.53-0.63 0.64-1.64 1.02-2.46 1.23-0.5 0.47-0.96 1.09-1.57 1.34-0.47 0.2-1.05 0.14-1.57 0.41-0.42 0.22-0.65 0.6-1.07 0.86-0.34 0.21-0.84 0.19-1.19 0.47-0.12 0.1-0.18 0.33-0.32 0.45-0.67 0.56-1.58 1.16-2.37 1.48-1.5 0.6-3.25 0.77-4.03 2.26-0.33 0.14-0.82 0.04-1.12 0.27-0.16 0.11-0.15 0.34-0.29 0.49-0.5 0.56-1.55 0.56-1.83 1.36-0.09 0.1-0.16 0.07-0.23 0.04s-0.13-0.05-0.21 0.01c-0.14 0.14-0.17 0.31-0.23 0.47-0.1 0.04-0.2 0.03-0.29 0.03h-0.11c-0.41 0.85-1.76 1.46-1.73 2.44-0.6 0.25-0.74 0.66-0.64 1.2-1.56 1.23-2.68 2.95-2.99 4.67-1.09 0.87-2.68 1.95-2.78 3.23-1.19 0.29-1.14 1.61-2.15 2.11-0.17 0.16-0.08 0.38-0.17 0.57-0.54 0.22-0.77 0.79-0.79 1.28-1.05 0.49-2.19 1.67-2.59 2.71-0.8 0.75-1.65 1.85-1.92 2.89-0.64 0.4-0.64 1.1-1.14 1.69-0.18 0.2-0.48 0.99-0.74 1.25-0.71 0.73-1.04 1.77-1.82 2.51-0.13 0.5-0.41 0.96-0.88 1.36-0.07 0.35-0.66 0.83-0.82 1.23-0.4 0.96-0.65 2.05-1.34 2.74-0.28 0.28-0.25 0.59-0.44 0.99-0.2 0.4-0.63 0.7-0.49 1.32-0.31 0.46-0.5 0.95-0.51 1.5-0.3 0.2-0.13 0.41-0.5 0.48-0.08 0.19 0.13 0.45-0.25 0.55-0.06 0.2 0.06 0.47 0.03 0.67-0.8 0.76-0.62 1.78-1.31 2.57 0.19 0.6-0.28 1.02-0.11 1.61-0.3 0.14-0.16 0.4-0.37 0.56 0.04 0.13-0.02 0.22 0.11 0.38-0.36 0.39-0.21 1.02-0.35 1.55-0.09 0.34-0.33 0.62-0.36 1.01-0.04 0.45 0.11 1.17-0.02 1.63-0.09 0.35-0.34 0.57-0.47 0.94 0.04 0.53-0.16 0.99-0.42 1.44 0.25 0.84-0.4 1.43-0.39 2.2-0.97 0.83-0.28 2.1-0.95 3.01 0.19 1.09-0.53 1.82-0.73 2.72-0.06 0.29 0.29 0.63 0.42 1.05 0.16 0.58-0.25 1.06-0.26 1.57-1.28 0.64-0.38 2.22 0.64 3.05 0.11 0.77-0.24 1.41-0.47 2.1 0.09 0.35 0.25 0.74-0.01 1.01 0.49 0.9-0.35 1.44 0.1 2.33-0.38 0.62-0.35 1.35-0.34 2.08-0.76 0.83 0.26 2.14-0.42 2.99-0.06 0.27-0.05 0.55 0.18 0.89-0.75 1-1.07 2.13-1.49 3.23 0.09 0.2 0.19 0.23 0.29 0.34-0.23 1.11-0.28 2.29-0.48 3.42 0.23 0.35 0.16 0.64 0.38 0.98-0.26 0.94-0.15 2.15 0.63 3.23-0.01 0.2-0.1 0.39-0.25 0.55 0.08 1.02 0.13 2.05 0.34 3.11 0.38 0.63 0.56 1.22 0.53 1.74 0.14 0.21 0.3 0.26 0.53 0.5-0.28 0.14 0.2 0.5 0.12 0.69-0.58 0.87-0.27 1.97 0.12 3.1-0.1 0.18 0.01 0.41-0.25 0.55 0.1 0.38-0.01 0.7 0.19 1.12-0.38 1.3-0.13 2.77-0.28 4.13 0.66 0.53 0.26 1.24 0.38 1.83 0.12 0.52 0.52 1.34 0.95 1.54-0.05 0.38-0.03 1.06 0.46 1.32 0.29 1.14 0.38 2.43 1.04 3.65 0.41 0.75 1.05 1.44 1.02 2.27 0.06-0.01 0.1 0.06 0.14 0.14 0.05 0.08 0.1 0.15 0.16 0.13 0.06 1.23 1.22 2.28 2.06 3.45 0.12 0.14-0.12 0.2-0.05 0.34 0.4 0.51 0.42 1.16 0.56 1.57 0.05 0.14 0.21 0.24 0.25 0.38 0.02 0.09-0.07 0.25-0.05 0.34 0.18 0.76 0.73 1.53 0.66 2.35 0.64 1.03 0.78 2.16 1.39 3.04-0.14 0.81 0.95 1.75 1.03 2.72 0.76 1.32 1.56 2.77 2 4.18 0.05 0.17 0 0.34 0.05 0.51 0.4 0.98 1.25 1.82 1.19 2.85 0.15 0.12 0.3 0.36 0.45 0.48-0.21 0.34 0.05 0.95 0.46 1.32 0.47 2.05 1.85 4.41 2.3 6.61-0.23 0.06-0.47 0.11-0.7 0.08-0.95-1.14-1.19-1.9-2.07-3.05-0.12-0.16-0.27-0.13-0.4-0.2-0.53-0.85-1.09-1.97-1.82-2.68-0.12-0.4-0.66-1.54-1.04-2.1-0.26-0.39-0.6-0.47-0.69-0.86-0.05-0.21 0.06-0.42-0.19-0.8-0.14-0.21-0.39-0.31-0.53-0.5-0.39-0.51-0.82-1.42-1.1-1.98-0.19-0.36-0.2-0.76-0.37-1.08-0.05-0.1-0.21-0.19-0.26-0.29-0.5-1.11-1.2-2.53-1.96-3.82 0.05-0.26-0.06-0.29-0.2-0.72-0.04-0.1 0.04-0.24 0.04-0.25-0.03-0.05-0.08-0.02-0.11 0.01-0.03 0.02-0.06 0.04-0.07 0.03-0.06-0.07-0.03-0.31-0.1-0.47-0.1-0.23-0.39-0.45-0.43-0.56-0.11-0.26-0.01-0.49-0.12-0.69-0.09-0.17-0.29-0.28-0.37-0.46-0.13-0.28 0.02-0.59-0.08-0.95-0.16-0.55-0.68-0.95-0.45-1.41-0.49-0.59-1.07-1.2-1.04-1.79-0.78-1.41-1.47-2.99-1.86-4.5-0.2-0.22-0.4-0.44-0.61-0.61 0.19-0.08 0.23-0.2 0.26-0.33-1.08-1.3-0.68-2.91-1.63-4.04 0.1-0.12 0.17-0.24 0.14-0.4-0.34-0.45-0.28-0.79-0.6-1.23 0.16-0.15 0.05-0.37 0.12-0.55-0.92-1.58-0.58-2.81-1.46-4.39 0.2-0.34 0.21-0.88-0.2-1.25-0.06-0.9-0.41-1.88-0.39-2.76-0.09-0.14-0.19-0.29-0.28-0.44-0.1-0.27 0.09-0.47 0.06-0.73-0.65-1.2-0.52-2.56-0.72-3.78-0.12-0.18-0.23-0.37-0.35-0.54 0-0.21 0.03-0.4 0.08-0.6-0.09-0.22-0.21-0.16-0.29-0.35 0.44-1.01-0.27-2.34-0.49-3.54 0.01-0.23 0.25-0.41 0.27-0.64-0.29-0.74-0.66-1.51-0.27-2.07-0.55-1.86-0.01-3.43-0.63-5.32 0.34-0.43 0.07-1.04-0.2-1.65 0.31-0.74 0.39-1.54-0.08-2.5 0.43-1.18-0.02-2.61 0.37-3.8-0.24-0.49 0.08-0.83-0.28-1.36 0.01-0.46-0.14-0.95-0.18-1.43 0.13-0.14 0.24-0.28 0.4-0.42-0.27-1.05 0.32-1.86-0.1-2.95 0.41-0.51 0.34-1.15 0.09-1.84 0.56-0.75 0.38-1.69 0.5-2.56-0.11-0.15-0.04-0.13 0.03-0.1 0.04 0.01 0.09 0.02 0.11 0 0.08-0.93-0.05-1.9 0.64-2.66-0.29-0.61-0.1-1.1 0.01-1.64 0.06-0.3-0.04-0.66 0.05-0.96 0.03-0.1 0.15-0.17 0.17-0.26 0.08-0.35 0.06-0.44 0.24-0.78 0.14-0.27-0.05-0.62-0.04-0.98 0.01-0.3 0.19-0.62 0.27-0.95 0.02-0.08-0.07-0.21-0.05-0.28 0.18-0.67 0.66-1.3 0.76-1.97 0.04-0.22-0.08-0.43 0.14-0.63-0.12-0.48 0.2-0.84 0.01-1.32 0.31-0.45 0.4-0.95 0.3-1.51 0.65-0.52 0.93-1.13 0.57-1.93 0.47-0.82 0.21-1.83 0.89-2.59 0.15-0.64 0.09-1.51 0.74-1.88 0.11-0.74 0.41-1.45 0.79-2.13-0.1-0.16-0.27-0.34-0.24-0.47 0.19-0.11 0.36-0.23 0.44-0.37 0.14-0.98 0.92-1.79 0.96-2.79 0.1-0.06 0.19-0.12 0.29-0.18 0.3-1.58 1.41-2.92 1.75-4.48 0.18-0.1 0.31-0.21 0.39-0.34 0.57-2.26 2.58-4.14 3.15-6.4 0.2-0.12 0.23-0.29 0.49-0.4 0.56-0.63 0.88-1.33 1.02-2.07 0.43-0.28 0.46-0.66 0.89-0.82 0.61-0.93 0.95-1.92 1.77-2.79 0.32-0.71 0.81-1.37 1.5-1.99 0.05-0.25 0.22-0.46 0.28-0.72 1.15-1.02 2.27-2.21 2.74-3.5 0.06-0.04 0.13-0.04 0.19-0.04 0.08 0 0.16 0 0.26-0.1 0.34-0.69 0.99-1 1.28-1.77 0.93-0.25 1.48-1.3 2.12-1.86 0.09-0.79 0.75-1.05 1.42-1.47 0.57-0.35 0.93-1.04 1.54-1.17 0.09-0.79 0.8-0.98 1.41-1.38 0.2-0.13 0.27-0.38 0.46-0.54 1.02-0.87 2.47-1.44 3.12-2.52 0.15-0.14 0.27-0.09 0.41-0.11 0.73-0.95 2.08-1.31 2.19-2.45 0.13-0.06 0.24-0.03 0.35 0.01 0.09 0.04 0.19 0.07 0.3 0.03 0.89-0.75 1.82-1.21 2.73-1.64 0.47-0.67 1.13-1.36 1.94-1.82 0.14-0.13 0.15-0.31 0.24-0.47 0.1-0.05 0.18 0.01 0.27 0.07 0.07 0.04 0.14 0.09 0.23 0.08 0.71-0.79 1.83-0.94 2.7-1.39 0.31-0.17 0.47-0.24 0.79-0.36 0.57-0.22 1.07-0.73 1.64-0.92 0.1-0.04 0.23-0.02 0.36 0 0.11 0.02 0.23 0.04 0.33 0.01 0.63-0.17 1.13-0.87 1.82-0.65 0.65-0.28 1.15-0.78 1.78-1.02 0.11-0.04 0.26-0.04 0.4-0.03h0.13c0.11 0 0.22-0.01 0.31-0.05m156.99 131.83c0.26-0.15 0.36 0.33 0.21 0.42-0.17 0-0.18-0.31-0.21-0.42m-96.85 50.55c0.12-0.06 0.18 0.07 0.24 0.2-0.04 0.01-0.07 0.02-0.09 0.02-0.1 0-0.12-0.11-0.15-0.22m95.03-48.13c0.06 0.1 0.14 0.03 0.24-0.05 0.08-0.06 0.18-0.13 0.28-0.09-0.07 0.39 0.21 0.6 0.38 0.91 0.06-0.14 0.11-0.29 0.15-0.43-0.11-0.22-0.21-0.43-0.18-0.66-0.09-0.09-0.15-0.04-0.22 0-0.06 0.04-0.13 0.09-0.22 0.02-0.17-0.28-0.01-0.58-0.26-0.77-0.45 0.32-0.06 0.67-0.18 1.06m1.58-0.23l0.01-0.01c0.02-0.16 0.07-0.31 0.14-0.46-0.12 0.09-0.2 0.3-0.15 0.47m-1.11 1.03c-0.07 0.19 0.01 0.36 0.15 0.49 0.04-0.08 0.09-0.16 0.13-0.25-0.09-0.1-0.16-0.24-0.28-0.24h-0.01m-2.91 2.27c-0.12 0.1-0.26 0.2-0.46 0.16-0.12 0.15-0.14 0.35-0.1 0.57-0.22 0.1-0.44 0.08-0.48 0.31 0.26 0.23 0.6 0.2 0.8 0.56 0.01 0.57-1 0.82-1.12 1.36 0.17 0.18 0.47-0.04 0.69-0.04 0.08 0.25 0.55 0.53 0.16 0.7 0.04 0.02 0.08 0.03 0.13 0.04 0.1-0.15 0.2-0.3 0.31-0.45-0.4-0.15-0.47-0.73-0.26-1.03 0.24-0.05 0.45 0.02 0.57 0.36l-0.36 0.18c0.06 0.14 0.14 0.18 0.24 0.21l0.63-0.93c-0.14-0.19-0.28-0.4-0.46-0.66-0.06-0.24 0.3-0.35 0.12-0.65-0.07-0.14-0.14-0.06-0.22 0.01-0.07 0.08-0.15 0.15-0.22 0.02-0.17-0.49 0.64-0.27 0.33-0.88-0.01-0.01-0.03-0.01-0.05-0.01-0.07 0-0.15 0.09-0.25 0.17m7.35 3.91c0.17-0.28 0.33-0.57 0.5-0.85-0.22 0.27-0.37 0.56-0.5 0.85m-0.92 1.41c-0.08 0.05-0.07 0.13-0.06 0.2 0.08-0.12 0.15-0.24 0.23-0.37-0.05 0.05-0.1 0.11-0.16 0.16m-6.47 9.8c0.08-0.03 0.14 0.02 0.23-0.06l-0.08-0.16c-0.13 0.04-0.19 0.11-0.15 0.22"/>
<path fill="url(#a)" d="m628.58 64.64v19.22h22.72v-20.14l-11.16-2.74-11.56 3.66z"/>
<path d="m627.39 67.47c0.23-0.63 1.25-1.52 2.83-2.36 2.32-1.24 5.84-2.38 9.79-2.43 6.63-0.1 12.1 2.87 12.7 4.41h0.06v-0.01c-0.06-3.58-5.2-10.05-11.7-10.26l-3.15 0.11c-6.05 0.62-10.64 7.12-10.59 10.53v0.01h0.06z" fill="#164c6c"/>
<g fill="url(#b)">
<path d="m635.55 75.19c-6.21 0.44-11.87 2.99-11.87 2.99v5.38s-0.03 1.36 2.63 2.25l0.13 5.46c-7.22 0.95-12.04 2.56-12.01 4.31 0 0.44 2.25 3.62 2.25 3.62s0.78 0.96 1.72 1.1 2.58 0.95 3.64 1.82c1.07 0.87 1.95 2.52 1.97 3.69 0.02 1.16 1.2 2.1 2.62 2.07l3.39-0.05c-4.06 2.31-5.35 4.76-6.55 6.46-1.24 1.74-2.28 16.8-2.28 16.8s0.57-1.52 2.88-5.11c2.31-3.58 11.46-8.51 18.35-12.25 5.78-3.14 11.02-6.26 11.02-6.26 1.34-0.78 2.55-1.43 2.55-2.58 0-1.4 0.59-3.08 1.35-3.73 0.76-0.67 2.15-1.33 3.09-1.5 0.93-0.16 1.68-1.15 1.68-1.15s2.14-3.25 2.13-3.69c-0.02-1.67-4.44-3.07-11.12-3.83l-0.13-5.41c1.94-0.59 3.09-1.28 3.07-2.02v-5.38s-5.07-2.81-11.83-3.11c-2.42 0-6.33 0-8.67 0.12"/>
<path d="m642.45 128.1c-15.04 7.24-22.43 10.89-23.5 18.67s-2.22 15.42-2.22 15.42c0.93-5.6 11.84-12.19 22.76-17.5 10.92-5.3 18.74-8.75 18.23-14.51-0.45-5.14-1.54-12.22-1.77-13.67 0.08 1.08-0.57 5.38-13.49 11.6"/>
<path d="m640.26 162.25c-20.34 9.48-25.38 12.09-25.97 17.91-0.51 5.01-1.68 15.57-2 18.42 0.39-1.55 2.49-5.54 13.28-11.4 14.1-7.67 36.69-14.04 36.14-22.06-0.54-8.02-2.06-18.59-2.06-18.59s0.94 6.24-19.4 15.73"/>
</g>
<path opacity=".7" d="m698.94 17.83c-78.62 68.64-72.74 53.81-18 45.42-54.74 8.39-63.63-4.87 27.19 40.57-90.82-45.44-74.9-44.42-48.75-3.09-26.15-41.33-16.29-53.88-30.19 38.41 13.9-92.29 17.86-76.83-12.12-47.32 29.99-29.51 44.96-24.01-45.85-16.84 90.82-7.17 77.34 1.37 41.26-26.16 36.08 27.52 35.48 43.47 1.84-48.82 33.63 92.3 21.35 82.11 37.62 31.17-16.27 50.94-31.63 55.3 47-13.34" fill="#fff"/>
</g>
</svg>
